<svg width="68" height="24" viewBox="0 0 68 24" fill="none" xmlns="http://www.w3.org/2000/svg">
<g clip-path="url(#clip0_1007_1314)">
<path d="M55.6473 14.4649C53.5091 16.1223 51.8774 17.4031 50.302 18.6085C49.7393 19.0605 49.1766 19.4372 48.6702 19.9645C47.9388 20.6426 46.926 21.396 47.4887 22.8274C48.0513 24.1835 49.1204 23.5808 49.9081 23.2041C50.7521 22.9027 51.5961 22.3 52.3838 21.7727C56.0411 19.4372 59.6984 17.0264 63.2995 14.6156C64.256 13.9375 65.2688 13.3348 66.1128 12.4308C67.9133 10.6226 67.8008 8.81454 65.8314 7.45846C63.1869 5.65035 60.4861 3.99291 57.7854 2.33548C56.66 1.5821 55.4785 0.828723 54.2969 0.301357C53.6217 5.68927e-06 52.834 0.0753366 52.1025 -1.33645e-06C51.8774 2.10946 52.7777 2.56149 53.5654 3.08886C55.5347 4.52028 57.5603 5.87637 59.5296 7.30779C60.2048 7.83515 60.9363 8.36252 61.6115 9.56792C60.5987 9.7186 59.6422 9.94461 58.6294 10.0199C51.0334 10.5473 43.4938 11.0747 35.8978 11.602C24.8697 12.3554 13.8977 13.1088 2.86957 13.9375C1.96931 14.0128 1.06905 14.4649 -1.29749e-06 14.8416C1.01279 16.8757 2.19438 16.4237 3.15091 16.3483C8.55246 16.1977 14.0103 15.8963 19.4118 15.6703C31.0589 15.1429 42.706 14.6156 54.3531 14.0882C54.6345 14.1635 54.8033 14.2389 55.6473 14.4649Z" fill="#F1F1F1"/>
</g>
<defs>
<clipPath id="clip0_1007_1314">
<rect width="67.3896" height="23.6682" fill="white" transform="matrix(-1 -8.74228e-08 -8.74228e-08 1 67.3896 0)"/>
</clipPath>
</defs>
</svg>
