<svg width="53" height="54" viewBox="0 0 53 54" fill="none" xmlns="http://www.w3.org/2000/svg">
<ellipse cx="26.4935" cy="26.9285" rx="26.4935" ry="26.9285" fill="#512DA8"/>
<g clip-path="url(#clip0_1001_1112)">
<path d="M35.2798 17.0952H33.4821C33.137 17.0952 32.8571 17.3751 32.8571 17.7202V17.9941C32.8571 18.3392 33.137 18.6191 33.4821 18.6191H35.2798C35.6249 18.6191 35.9048 18.3392 35.9048 17.9941V17.7202C35.9048 17.3751 35.6249 17.0952 35.2798 17.0952Z" fill="#56B3B4"/>
<path d="M18.5179 41.4762H10.625C10.2798 41.4762 10 41.756 10 42.1012V42.375C10 42.7202 10.2798 43 10.625 43H18.5179C18.863 43 19.1429 42.7202 19.1429 42.375V42.1012C19.1429 41.756 18.863 41.4762 18.5179 41.4762Z" fill="#E03C6C"/>
<path d="M33.7559 29.2857H28.9107C28.5655 29.2857 28.2857 29.5655 28.2857 29.9107V30.1845C28.2857 30.5297 28.5655 30.8095 28.9107 30.8095H33.7559C34.1011 30.8095 34.3809 30.5297 34.3809 30.1845V29.9107C34.3809 29.5655 34.1011 29.2857 33.7559 29.2857Z" fill="#BF85BF"/>
<path d="M26.1369 29.2857H19.7679C19.4227 29.2857 19.1429 29.5655 19.1429 29.9107V30.1845C19.1429 30.5297 19.4227 30.8095 19.7679 30.8095H26.1369C26.4821 30.8095 26.7619 30.5297 26.7619 30.1845V29.9107C26.7619 29.5655 26.4821 29.2857 26.1369 29.2857Z" fill="#E03C6C"/>
<path d="M16.994 29.2857H10.625C10.2798 29.2857 10 29.5655 10 29.9107V30.1845C10 30.5297 10.2798 30.8095 10.625 30.8095H16.994C17.3392 30.8095 17.619 30.5297 17.619 30.1845V29.9107C17.619 29.5655 17.3392 29.2857 16.994 29.2857Z" fill="#56B3B4"/>
<path d="M18.5179 35.381H10.625C10.2798 35.381 10 35.6608 10 36.006V36.2798C10 36.6249 10.2798 36.9048 10.625 36.9048H18.5179C18.863 36.9048 19.1429 36.6249 19.1429 36.2798V36.006C19.1429 35.6608 18.863 35.381 18.5179 35.381Z" fill="#BF85BF"/>
<path d="M18.5179 23.1905H10.625C10.2798 23.1905 10 23.4703 10 23.8155V24.0893C10 24.4345 10.2798 24.7143 10.625 24.7143H18.5179C18.863 24.7143 19.1429 24.4345 19.1429 24.0893V23.8155C19.1429 23.4703 18.863 23.1905 18.5179 23.1905Z" fill="#BF85BF"/>
<path d="M33.756 14.0476H18.244C17.8989 14.0476 17.619 14.3274 17.619 14.6726V14.9464C17.619 15.2916 17.8989 15.5714 18.244 15.5714H33.756C34.1011 15.5714 34.381 15.2916 34.381 14.9464V14.6726C34.381 14.3274 34.1011 14.0476 33.756 14.0476Z" fill="#F7BA3E"/>
<path d="M15.4702 14.0476H10.625C10.2798 14.0476 10 14.3274 10 14.6726V14.9464C10 15.2916 10.2798 15.5714 10.625 15.5714H15.4702C15.8154 15.5714 16.0952 15.2916 16.0952 14.9464V14.6726C16.0952 14.3274 15.8154 14.0476 15.4702 14.0476Z" fill="#E03C6C"/>
<path d="M18.5179 38.4286H16.7202C16.3751 38.4286 16.0952 38.7084 16.0952 39.0536V39.3274C16.0952 39.6725 16.3751 39.9524 16.7202 39.9524H18.5179C18.863 39.9524 19.1429 39.6725 19.1429 39.3274V39.0536C19.1429 38.7084 18.863 38.4286 18.5179 38.4286Z" fill="#F7BA3E"/>
<path d="M18.5179 20.1429H16.7202C16.3751 20.1429 16.0952 20.4227 16.0952 20.7679V21.0417C16.0952 21.3868 16.3751 21.6667 16.7202 21.6667H18.5179C18.863 21.6667 19.1429 21.3868 19.1429 21.0417V20.7679C19.1429 20.4227 18.863 20.1429 18.5179 20.1429Z" fill="#56B3B4"/>
<path d="M13.9464 38.4286H10.625C10.2798 38.4286 10 38.7084 10 39.0536V39.3274C10 39.6725 10.2798 39.9524 10.625 39.9524H13.9464C14.2916 39.9524 14.5714 39.6725 14.5714 39.3274V39.0536C14.5714 38.7084 14.2916 38.4286 13.9464 38.4286Z" fill="#D0D4D8"/>
<path d="M13.9464 20.1429H10.625C10.2798 20.1429 10 20.4227 10 20.7679V21.0417C10 21.3868 10.2798 21.6667 10.625 21.6667H13.9464C14.2916 21.6667 14.5714 21.3868 14.5714 21.0417V20.7679C14.5714 20.4227 14.2916 20.1429 13.9464 20.1429Z" fill="#F7BA3E"/>
<path d="M32.2321 38.4286H30.4345C30.0893 38.4286 29.8095 38.7084 29.8095 39.0536V39.3274C29.8095 39.6725 30.0893 39.9524 30.4345 39.9524H32.2321C32.5773 39.9524 32.8571 39.6725 32.8571 39.3274V39.0536C32.8571 38.7084 32.5773 38.4286 32.2321 38.4286Z" fill="#E03C6C"/>
<path d="M27.6607 38.4286H21.2917C20.9465 38.4286 20.6667 38.7084 20.6667 39.0536V39.3274C20.6667 39.6725 20.9465 39.9524 21.2917 39.9524H27.6607C28.0059 39.9524 28.2857 39.6725 28.2857 39.3274V39.0536C28.2857 38.7084 28.0059 38.4286 27.6607 38.4286Z" fill="#BF85BF"/>
<path d="M41.375 38.4286H35.006C34.6608 38.4286 34.381 38.7084 34.381 39.0536V39.3274C34.381 39.6725 34.6608 39.9524 35.006 39.9524H41.375C41.7202 39.9524 42 39.6725 42 39.3274V39.0536C42 38.7084 41.7202 38.4286 41.375 38.4286Z" fill="#56B3B4"/>
<path d="M35.2798 26.2381H22.8155C22.4703 26.2381 22.1905 26.5179 22.1905 26.8631V27.1369C22.1905 27.4821 22.4703 27.7619 22.8155 27.7619H35.2798C35.625 27.7619 35.9048 27.4821 35.9048 27.1369V26.8631C35.9048 26.5179 35.625 26.2381 35.2798 26.2381Z" fill="#56B3B4"/>
<path d="M20.0417 26.2381H15.1964C14.8513 26.2381 14.5714 26.5179 14.5714 26.8631V27.1369C14.5714 27.4821 14.8513 27.7619 15.1964 27.7619H20.0417C20.3869 27.7619 20.6667 27.4821 20.6667 27.1369V26.8631C20.6667 26.5179 20.3869 26.2381 20.0417 26.2381Z" fill="#F7BA3E"/>
<path d="M12.4226 26.2381H10.625C10.2798 26.2381 10 26.5179 10 26.8631V27.1369C10 27.4821 10.2798 27.7619 10.625 27.7619H12.4226C12.7678 27.7619 13.0476 27.4821 13.0476 27.1369V26.8631C13.0476 26.5179 12.7678 26.2381 12.4226 26.2381Z" fill="#D0D4D8"/>
<path d="M30.7083 17.0952H24.3393C23.9941 17.0952 23.7143 17.3751 23.7143 17.7202V17.9941C23.7143 18.3392 23.9941 18.6191 24.3393 18.6191H30.7083C31.0535 18.6191 31.3333 18.3392 31.3333 17.9941V17.7202C31.3333 17.3751 31.0535 17.0952 30.7083 17.0952Z" fill="#BF85BF"/>
<path d="M21.5655 17.0952H10.625C10.2798 17.0952 10 17.3751 10 17.7202V17.9941C10 18.3392 10.2798 18.6191 10.625 18.6191H21.5655C21.9107 18.6191 22.1905 18.3392 22.1905 17.9941V17.7202C22.1905 17.3751 21.9107 17.0952 21.5655 17.0952Z" fill="#D0D4D8"/>
<path d="M29.1845 32.3333H15.1964C14.8513 32.3333 14.5714 32.6132 14.5714 32.9583V33.2322C14.5714 33.5773 14.8513 33.8572 15.1964 33.8572H29.1845C29.5297 33.8572 29.8095 33.5773 29.8095 33.2322V32.9583C29.8095 32.6132 29.5297 32.3333 29.1845 32.3333Z" fill="#F7BA3E"/>
<path d="M12.4226 32.3333H10.625C10.2798 32.3333 10 32.6132 10 32.9583V33.2322C10 33.5773 10.2798 33.8572 10.625 33.8572H12.4226C12.7678 33.8572 13.0476 33.5773 13.0476 33.2322V32.9583C13.0476 32.6132 12.7678 32.3333 12.4226 32.3333Z" fill="#BF85BF"/>
<path d="M36.8036 20.1429H28.9107C28.5655 20.1429 28.2857 20.4227 28.2857 20.7679V21.0417C28.2857 21.3868 28.5655 21.6667 28.9107 21.6667H36.8036C37.1487 21.6667 37.4286 21.3868 37.4286 21.0417V20.7679C37.4286 20.4227 37.1487 20.1429 36.8036 20.1429Z" fill="#E03C6C"/>
<path d="M36.8036 23.1905H28.9107C28.5655 23.1905 28.2857 23.4703 28.2857 23.8155V24.0893C28.2857 24.4345 28.5655 24.7143 28.9107 24.7143H36.8036C37.1487 24.7143 37.4286 24.4345 37.4286 24.0893V23.8155C37.4286 23.4703 37.1487 23.1905 36.8036 23.1905Z" fill="#F7BA3E"/>
<path d="M29.1845 11H10.625C10.2798 11 10 11.2798 10 11.625V11.8988C10 12.244 10.2798 12.5238 10.625 12.5238H29.1845C29.5297 12.5238 29.8095 12.244 29.8095 11.8988V11.625C29.8095 11.2798 29.5297 11 29.1845 11Z" fill="#56B3B4"/>
<path d="M41.375 11H31.9583C31.6132 11 31.3333 11.2798 31.3333 11.625V11.8988C31.3333 12.244 31.6132 12.5238 31.9583 12.5238H41.375C41.7202 12.5238 42 12.244 42 11.8988V11.625C42 11.2798 41.7202 11 41.375 11Z" fill="#BF85BF"/>
<path d="M35.2798 32.3333H31.9583C31.6132 32.3333 31.3333 32.6132 31.3333 32.9583V33.2322C31.3333 33.5773 31.6132 33.8572 31.9583 33.8572H35.2798C35.6249 33.8572 35.9048 33.5773 35.9048 33.2322V32.9583C35.9048 32.6132 35.6249 32.3333 35.2798 32.3333Z" fill="#56B3B4"/>
<path d="M41.375 32.3333H38.0536C37.7084 32.3333 37.4286 32.6132 37.4286 32.9583V33.2322C37.4286 33.5773 37.7084 33.8572 38.0536 33.8572H41.375C41.7202 33.8572 42 33.5773 42 33.2322V32.9583C42 32.6132 41.7202 32.3333 41.375 32.3333Z" fill="#E03C6C"/>
<path d="M41.375 29.2857H36.5298C36.1846 29.2857 35.9048 29.5655 35.9048 29.9107V30.1845C35.9048 30.5297 36.1846 30.8095 36.5298 30.8095H41.375C41.7202 30.8095 42 30.5297 42 30.1845V29.9107C42 29.5655 41.7202 29.2857 41.375 29.2857Z" fill="#D0D4D8"/>
<path d="M41.375 14.0476H36.5298C36.1846 14.0476 35.9048 14.3274 35.9048 14.6726V14.9464C35.9048 15.2916 36.1846 15.5714 36.5298 15.5714H41.375C41.7202 15.5714 42 15.2916 42 14.9464V14.6726C42 14.3274 41.7202 14.0476 41.375 14.0476Z" fill="#D0D4D8"/>
<path d="M41.375 26.2381H38.0536C37.7084 26.2381 37.4286 26.5179 37.4286 26.8631V27.1369C37.4286 27.4821 37.7084 27.7619 38.0536 27.7619H41.375C41.7202 27.7619 42 27.4821 42 27.1369V26.8631C42 26.5179 41.7202 26.2381 41.375 26.2381Z" fill="#D0D4D8"/>
<path d="M41.375 17.0952H38.0536C37.7084 17.0952 37.4286 17.3751 37.4286 17.7202V17.9941C37.4286 18.3392 37.7084 18.6191 38.0536 18.6191H41.375C41.7202 18.6191 42 18.3392 42 17.9941V17.7202C42 17.3751 41.7202 17.0952 41.375 17.0952Z" fill="#F7BA3E"/>
<path d="M41.375 20.1429H39.5774C39.2322 20.1429 38.9524 20.4227 38.9524 20.7679V21.0417C38.9524 21.3868 39.2322 21.6667 39.5774 21.6667H41.375C41.7202 21.6667 42 21.3868 42 21.0417V20.7679C42 20.4227 41.7202 20.1429 41.375 20.1429Z" fill="#D0D4D8"/>
<path d="M41.375 23.1905H39.5774C39.2322 23.1905 38.9524 23.4703 38.9524 23.8155V24.0893C38.9524 24.4345 39.2322 24.7143 39.5774 24.7143H41.375C41.7202 24.7143 42 24.4345 42 24.0893V23.8155C42 23.4703 41.7202 23.1905 41.375 23.1905Z" fill="#56B3B4"/>
<path d="M41.375 35.381H27.3869C27.0417 35.381 26.7619 35.6608 26.7619 36.006V36.2798C26.7619 36.6249 27.0417 36.9048 27.3869 36.9048H41.375C41.7202 36.9048 42 36.6249 42 36.2798V36.006C42 35.6608 41.7202 35.381 41.375 35.381Z" fill="#F7BA3E"/>
<path d="M24.6131 35.381H21.2917C20.9465 35.381 20.6667 35.6608 20.6667 36.006V36.2798C20.6667 36.6249 20.9465 36.9048 21.2917 36.9048H24.6131C24.9583 36.9048 25.2381 36.6249 25.2381 36.2798V36.006C25.2381 35.6608 24.9583 35.381 24.6131 35.381Z" fill="#D0D4D8"/>
<path d="M41.375 41.4762H33.4821C33.137 41.4762 32.8571 41.756 32.8571 42.1012V42.375C32.8571 42.7202 33.137 43 33.4821 43H41.375C41.7202 43 42 42.7202 42 42.375V42.1012C42 41.756 41.7202 41.4762 41.375 41.4762Z" fill="#D0D4D8"/>
<path d="M30.7083 41.4762H21.2917C20.9465 41.4762 20.6667 41.756 20.6667 42.1012V42.375C20.6667 42.7202 20.9465 43 21.2917 43H30.7083C31.0535 43 31.3333 42.7202 31.3333 42.375V42.1012C31.3333 41.756 31.0535 41.4762 30.7083 41.4762Z" fill="#56B3B4"/>
<path d="M26.1369 20.1429H21.2917C20.9465 20.1429 20.6667 20.4227 20.6667 20.7679V21.0417C20.6667 21.3868 20.9465 21.6667 21.2917 21.6667H26.1369C26.4821 21.6667 26.7619 21.3868 26.7619 21.0417V20.7679C26.7619 20.4227 26.4821 20.1429 26.1369 20.1429Z" fill="#D0D4D8"/>
<path d="M26.1369 23.1905H21.2917C20.9465 23.1905 20.6667 23.4703 20.6667 23.8155V24.0893C20.6667 24.4345 20.9465 24.7143 21.2917 24.7143H26.1369C26.4821 24.7143 26.7619 24.4345 26.7619 24.0893V23.8155C26.7619 23.4703 26.4821 23.1905 26.1369 23.1905Z" fill="#D0D4D8"/>
</g>
<defs>
<clipPath id="clip0_1001_1112">
<rect width="32" height="32" fill="white" transform="translate(10 11)"/>
</clipPath>
</defs>
</svg>
