<svg width="53" height="54" viewBox="0 0 53 54" fill="none" xmlns="http://www.w3.org/2000/svg">
<ellipse cx="26.4935" cy="26.9285" rx="26.4935" ry="26.9285" fill="#3E3E3E"/>
<rect width="6" height="6" rx="3" transform="matrix(1.31134e-07 1 1 -1.31134e-07 33 33)" stroke="#64B75D" stroke-width="3"/>
<path d="M27 16L28 16C31.7712 16 33.6569 16 34.8284 17.1716C36 18.3431 36 20.2288 36 24L36 33" stroke="#64B75D" stroke-width="3"/>
<path d="M23.2806 16.2314C23.1351 16.1114 23.1351 15.8886 23.2806 15.7686L27.7591 12.0747C27.9548 11.9134 28.25 12.0525 28.25 12.3062L28.25 19.6938C28.25 19.9475 27.9548 20.0866 27.7591 19.9253L23.2806 16.2314Z" fill="#64B75D"/>
<path d="M17 33C15.3431 33 14 34.3431 14 36V36C14 37.6569 15.3431 39 17 39V39C18.6569 39 20 37.6569 20 36V36C20 34.3431 18.6569 33 17 33V33Z" stroke="#64B75D" stroke-width="3"/>
<path d="M17 13C15.3431 13 14 14.3431 14 16V16C14 17.6569 15.3431 19 17 19V19C18.6569 19 20 17.6569 20 16V16C20 14.3431 18.6569 13 17 13V13Z" stroke="#64B75D" stroke-width="3"/>
<path d="M17 33L17 18" stroke="#64B75D" stroke-width="3"/>
</svg>
