<?xml version="1.0" encoding="UTF-8" standalone="no"?>
<!DOCTYPE svg PUBLIC "-//W3C//DTD SVG 1.1//EN"
 "http://www.w3.org/Graphics/SVG/1.1/DTD/svg11.dtd">
<!-- Generated by graphviz version 2.43.0 (0)
 -->
<!-- Title: %3 Pages: 1 -->
<svg width="1080pt" height="1056pt"
 viewBox="0.00 0.00 1079.52 1056.11" xmlns="http://www.w3.org/2000/svg" xmlns:xlink="http://www.w3.org/1999/xlink">
<g id="graph0" class="graph" transform="scale(1 1) rotate(0) translate(4 1052.11)">
<title>%3</title>
<polygon fill="white" stroke="transparent" points="-4,4 -4,-1052.11 1075.52,-1052.11 1075.52,4 -4,4"/>
<!-- Core API -->
<g id="node1" class="node">
<title>Core API</title>
<ellipse fill="orange" stroke="black" cx="581.5" cy="-524.06" rx="51.99" ry="51.99"/>
<text text-anchor="middle" x="581.5" y="-520.36" font-family="Times,serif" font-size="14.00">Core API</text>
</g>
<!-- Confluence App -->
<g id="node6" class="node">
<title>Confluence App</title>
<polygon fill="pink" stroke="black" points="885,-542.06 757,-542.06 757,-506.06 885,-506.06 885,-542.06"/>
<text text-anchor="middle" x="821" y="-520.36" font-family="Times,serif" font-size="14.00">Confluence App</text>
</g>
<!-- Core API&#45;&gt;Confluence App -->
<g id="edge1" class="edge">
<title>Core API&#45;&gt;Confluence App</title>
<path fill="none" stroke="black" d="M633.47,-529.73C666.54,-530.91 709.9,-531.12 746.59,-530.36"/>
<polygon fill="black" stroke="black" points="746.84,-533.85 756.75,-530.12 746.67,-526.85 746.84,-533.85"/>
</g>
<!-- OpenAI -->
<g id="node2" class="node">
<title>OpenAI</title>
<image xlink:href="cloud.svg" width="205px" height="137px" preserveAspectRatio="xMinYMin meet" x="866.519" y="-311.007"/>
<text text-anchor="middle" x="969.02" y="-238.81" font-family="Times,serif" font-size="14.00">OpenAI</text>
</g>
<!-- GitHub App -->
<g id="node3" class="node">
<title>GitHub App</title>
<polygon fill="pink" stroke="black" points="557.99,-769.83 456.99,-769.83 456.99,-733.83 557.99,-733.83 557.99,-769.83"/>
<text text-anchor="middle" x="507.49" y="-748.13" font-family="Times,serif" font-size="14.00">GitHub App</text>
</g>
<!-- GitHub App&#45;&gt;Core API -->
<g id="edge2" class="edge">
<title>GitHub App&#45;&gt;Core API</title>
<path fill="none" stroke="black" d="M513.42,-733.58C523.87,-701.41 545.99,-633.33 562.19,-583.47"/>
<polygon fill="black" stroke="black" points="565.59,-584.35 565.35,-573.76 558.93,-582.19 565.59,-584.35"/>
</g>
<!-- GitHub App&#45;&gt;OpenAI -->
<g id="edge4" class="edge">
<title>GitHub App&#45;&gt;OpenAI</title>
<path fill="none" stroke="black" d="M523.92,-733.71C583.53,-667.92 790.69,-439.31 900.1,-318.57"/>
<polygon fill="black" stroke="black" points="902.72,-320.89 906.84,-311.13 897.53,-316.19 902.72,-320.89"/>
</g>
<!-- GitHub API -->
<g id="node7" class="node">
<title>GitHub API</title>
<image xlink:href="cloud.svg" width="205px" height="137px" preserveAspectRatio="xMinYMin meet" x="330.981" y="-1048.11"/>
<text text-anchor="middle" x="433.48" y="-975.91" font-family="Times,serif" font-size="14.00">GitHub API</text>
</g>
<!-- GitHub App&#45;&gt;GitHub API -->
<g id="edge3" class="edge">
<title>GitHub App&#45;&gt;GitHub API</title>
<path fill="none" stroke="black" d="M501.56,-770.09C492.37,-798.38 474.14,-854.48 458.86,-901.51"/>
<polygon fill="black" stroke="black" points="455.51,-900.49 455.75,-911.08 462.17,-902.66 455.51,-900.49"/>
</g>
<!-- Jira App -->
<g id="node4" class="node">
<title>Jira App</title>
<polygon fill="pink" stroke="black" points="379,-542.06 305,-542.06 305,-506.06 379,-506.06 379,-542.06"/>
<text text-anchor="middle" x="342" y="-520.36" font-family="Times,serif" font-size="14.00">Jira App</text>
</g>
<!-- Jira App&#45;&gt;Core API -->
<g id="edge10" class="edge">
<title>Jira App&#45;&gt;Core API</title>
<path fill="none" stroke="black" d="M379.16,-524.06C416.46,-524.06 474.6,-524.06 519.01,-524.06"/>
<polygon fill="black" stroke="black" points="519.12,-527.56 529.12,-524.06 519.12,-520.56 519.12,-527.56"/>
</g>
<!-- Jira App&#45;&gt;OpenAI -->
<g id="edge12" class="edge">
<title>Jira App&#45;&gt;OpenAI</title>
<path fill="none" stroke="black" d="M379.35,-507.29C471.64,-465.85 713.38,-357.3 857.07,-292.78"/>
<polygon fill="black" stroke="black" points="858.7,-295.88 866.39,-288.59 855.83,-289.49 858.7,-295.88"/>
</g>
<!-- Jira API -->
<g id="node9" class="node">
<title>Jira API</title>
<image xlink:href="cloud.svg" width="205px" height="137px" preserveAspectRatio="xMinYMin meet" x="-7.10543e-14" y="-592.556"/>
<text text-anchor="middle" x="102.5" y="-520.36" font-family="Times,serif" font-size="14.00">Jira API</text>
</g>
<!-- Jira App&#45;&gt;Jira API -->
<g id="edge11" class="edge">
<title>Jira App&#45;&gt;Jira API</title>
<path fill="none" stroke="black" d="M304.84,-519.01C280.61,-517.78 247.58,-517.22 215.24,-517.32"/>
<polygon fill="black" stroke="black" points="215.22,-513.82 205.23,-517.37 215.25,-520.82 215.22,-513.82"/>
</g>
<!-- Slack App -->
<g id="node5" class="node">
<title>Slack App</title>
<polygon fill="pink" stroke="black" points="550.99,-314.28 463.99,-314.28 463.99,-278.28 550.99,-278.28 550.99,-314.28"/>
<text text-anchor="middle" x="507.49" y="-292.58" font-family="Times,serif" font-size="14.00">Slack App</text>
</g>
<!-- Slack App&#45;&gt;Core API -->
<g id="edge14" class="edge">
<title>Slack App&#45;&gt;Core API</title>
<path fill="none" stroke="black" d="M513.42,-314.53C523.87,-346.7 545.99,-414.78 562.19,-464.64"/>
<polygon fill="black" stroke="black" points="558.93,-465.92 565.35,-474.35 565.59,-463.76 558.93,-465.92"/>
</g>
<!-- Slack App&#45;&gt;OpenAI -->
<g id="edge16" class="edge">
<title>Slack App&#45;&gt;OpenAI</title>
<path fill="none" stroke="black" d="M551.33,-291.17C620.72,-283.09 758.07,-267.08 856.33,-255.64"/>
<polygon fill="black" stroke="black" points="856.78,-259.11 866.31,-254.47 855.97,-252.15 856.78,-259.11"/>
</g>
<!-- Slack API -->
<g id="node10" class="node">
<title>Slack API</title>
<image xlink:href="cloud.svg" width="205px" height="137px" preserveAspectRatio="xMinYMin meet" x="330.981" y="-137"/>
<text text-anchor="middle" x="433.48" y="-64.8" font-family="Times,serif" font-size="14.00">Slack API</text>
</g>
<!-- Slack App&#45;&gt;Slack API -->
<g id="edge15" class="edge">
<title>Slack App&#45;&gt;Slack API</title>
<path fill="none" stroke="black" d="M505.52,-277.99C499.04,-249.7 481.8,-193.74 465.72,-146.76"/>
<polygon fill="black" stroke="black" points="468.99,-145.5 462.42,-137.19 462.38,-147.79 468.99,-145.5"/>
</g>
<!-- Confluence App&#45;&gt;Core API -->
<g id="edge6" class="edge">
<title>Confluence App&#45;&gt;Core API</title>
<path fill="none" stroke="black" d="M756.82,-518C721.63,-517.05 678.22,-517.08 643.4,-518.06"/>
<polygon fill="black" stroke="black" points="643.24,-514.56 633.36,-518.38 643.47,-521.56 643.24,-514.56"/>
</g>
<!-- Confluence App&#45;&gt;OpenAI -->
<g id="edge8" class="edge">
<title>Confluence App&#45;&gt;OpenAI</title>
<path fill="none" stroke="black" d="M830.48,-506.02C849.79,-469.29 894.67,-383.92 928.15,-320.24"/>
<polygon fill="black" stroke="black" points="931.45,-321.49 933,-311.01 925.25,-318.24 931.45,-321.49"/>
</g>
<!-- Confluence API -->
<g id="node8" class="node">
<title>Confluence API</title>
<image xlink:href="cloud.svg" width="205px" height="137px" preserveAspectRatio="xMinYMin meet" x="866.519" y="-874.105"/>
<text text-anchor="middle" x="969.02" y="-801.91" font-family="Times,serif" font-size="14.00">Confluence API</text>
</g>
<!-- Confluence App&#45;&gt;Confluence API -->
<g id="edge7" class="edge">
<title>Confluence App&#45;&gt;Confluence API</title>
<path fill="none" stroke="black" d="M826.8,-542.41C842.67,-579.38 886.41,-664.57 921.3,-728.08"/>
<polygon fill="black" stroke="black" points="918.26,-729.82 926.16,-736.89 924.39,-726.44 918.26,-729.82"/>
</g>
<!-- GitHub API&#45;&gt;GitHub App -->
<g id="edge5" class="edge">
<title>GitHub API&#45;&gt;GitHub App:e</title>
<path fill="none" stroke="black" d="M471.16,-910.96C501.06,-856.47 540.03,-785.48 553.59,-760.77"/>
<polygon fill="black" stroke="black" points="556.75,-762.28 558.49,-751.83 550.61,-758.92 556.75,-762.28"/>
<text text-anchor="middle" x="479.87" y="-839.67" font-family="Times,serif" font-size="14.00">Webhook</text>
</g>
<!-- Confluence API&#45;&gt;Confluence App -->
<g id="edge9" class="edge">
<title>Confluence API&#45;&gt;Confluence App</title>
<path fill="none" stroke="black" d="M939.47,-736.89C909.78,-676.92 865.13,-593.1 839.88,-550.75"/>
<polygon fill="black" stroke="black" points="842.82,-548.86 834.64,-542.13 836.84,-552.49 842.82,-548.86"/>
<text text-anchor="middle" x="857.17" y="-647.62" font-family="Times,serif" font-size="14.00">Webhook</text>
</g>
<!-- Jira API&#45;&gt;Jira App -->
<g id="edge13" class="edge">
<title>Jira API&#45;&gt;Jira App</title>
<path fill="none" stroke="black" d="M205.11,-530.74C236.24,-530.97 268.96,-530.58 294.59,-529.56"/>
<polygon fill="black" stroke="black" points="294.93,-533.05 304.76,-529.11 294.62,-526.06 294.93,-533.05"/>
<text text-anchor="middle" x="266.1" y="-518.95" font-family="Times,serif" font-size="14.00">Webhook</text>
</g>
<!-- Slack API&#45;&gt;Slack App -->
<g id="edge17" class="edge">
<title>Slack API&#45;&gt;Slack App</title>
<path fill="none" stroke="black" d="M449.28,-137.22C462.49,-181.33 480.86,-236.22 493.58,-268.64"/>
<polygon fill="black" stroke="black" points="490.34,-269.97 497.33,-277.94 496.84,-267.35 490.34,-269.97"/>
<text text-anchor="middle" x="438.93" y="-206.73" font-family="Times,serif" font-size="14.00">Webhook</text>
</g>
</g>
</svg>
