<svg width="35" height="35" viewBox="0 0 35 35" fill="none" xmlns="http://www.w3.org/2000/svg">
<path d="M5.83333 17.125C5.83333 15.2394 5.83333 14.2966 6.41911 13.7108C7.0049 13.125 7.94771 13.125 9.83333 13.125H25.1667C27.0523 13.125 27.9951 13.125 28.5809 13.7108C29.1667 14.2966 29.1667 15.2394 29.1667 17.125V24.625C29.1667 27.4534 29.1667 28.8676 28.288 29.7463C27.4093 30.625 25.9951 30.625 23.1667 30.625H11.8333C9.0049 30.625 7.59069 30.625 6.71201 29.7463C5.83333 28.8676 5.83333 27.4534 5.83333 24.625V17.125Z" fill="#121212" stroke="#F4E346" stroke-width="2"/>
<path d="M23.3333 11.6667V10.2083C23.3333 9.4343 23.3333 9.04728 23.2905 8.72237C22.9952 6.4787 21.2296 4.71316 18.986 4.41778C18.661 4.375 18.274 4.375 17.5 4.375V4.375C16.726 4.375 16.3389 4.375 16.014 4.41778C13.7704 4.71316 12.0048 6.4787 11.7094 8.72237C11.6667 9.04728 11.6667 9.4343 11.6667 10.2083V11.6667" stroke="#F4E346" stroke-width="2" stroke-linecap="round"/>
<circle cx="17.5" cy="21.875" r="2.91667" fill="#F4E346"/>
</svg>
